<?xml version="1.0" encoding="utf-8"?>
<!-- Generator: Adobe Illustrator 13.0.0, SVG Export Plug-In . SVG Version: 6.00 Build 14948)  -->
<!DOCTYPE svg PUBLIC "-//W3C//DTD SVG 1.1//EN" "http://www.w3.org/Graphics/SVG/1.1/DTD/svg11.dtd">
<svg version="1.1" id="Layer_1" xmlns="http://www.w3.org/2000/svg" xmlns:xlink="http://www.w3.org/1999/xlink" x="0px" y="0px"
	 width="50px" height="50px" viewBox="0 0 50 50" enable-background="new 0 0 50 50" xml:space="preserve">
<path fill="#FFFFFF" d="M24.806,6.697c1.079,0,2.138,0.094,3.164,0.275L30.584,0.5l6.947,2.809l-2.615,6.472
	c1.938,1.306,3.608,2.977,4.915,4.914l6.472-2.615l2.809,6.947l-6.473,2.615c0.181,1.028,0.275,2.085,0.275,3.165
	c0,1.079-0.095,2.138-0.275,3.164l6.473,2.614l-2.809,6.947l-6.472-2.615c-1.188,1.764-2.678,3.306-4.396,4.552l2.838,6.376
	l-6.843,3.052l-2.839-6.378c-1.223,0.26-2.488,0.396-3.786,0.396c-1.079,0-2.137-0.095-3.164-0.274l-2.615,6.472l-6.947-2.809
	l2.615-6.472c-1.938-1.306-3.608-2.977-4.914-4.915l-6.472,2.615L0.5,30.584l6.473-2.614c-0.181-1.026-0.275-2.085-0.275-3.164
	c0-1.08,0.094-2.137,0.275-3.165L0.5,19.026l2.809-6.947l6.472,2.615c1.188-1.763,2.678-3.305,4.395-4.552l-2.838-6.376l6.844-3.05
	l2.84,6.377C22.241,6.833,23.508,6.697,24.806,6.697z M24.806,12.316c-6.897,0-12.489,5.592-12.489,12.489
	c0,6.898,5.592,12.489,12.489,12.489c6.898,0,12.489-5.591,12.489-12.489C37.295,17.908,31.704,12.316,24.806,12.316z"/>
</svg>
