<?xml version="1.0" encoding="utf-8"?>
<!-- Generator: Adobe Illustrator 13.0.0, SVG Export Plug-In . SVG Version: 6.00 Build 14948)  -->
<!DOCTYPE svg PUBLIC "-//W3C//DTD SVG 1.1//EN" "http://www.w3.org/Graphics/SVG/1.1/DTD/svg11.dtd">
<svg version="1.1" id="Layer_1" xmlns="http://www.w3.org/2000/svg" xmlns:xlink="http://www.w3.org/1999/xlink" x="0px" y="0px"
	 width="40px" height="40px" viewBox="0 0 40 40" enable-background="new 0 0 40 40" xml:space="preserve">
<circle fill="#FFFFFF" cx="20.208" cy="20.042" r="17.333"/>
<path fill-rule="evenodd" clip-rule="evenodd" d="M25.507,10.867c0.223,0.363,0.662,0.508,0.878,0.878
	c0.146,0.304,0.365,0.534,0.607,0.743c0.159,0.178,0.268,0.407,0.405,0.607c0.165,0.443,0.367,0.848,0.607,1.215
	c0.287,0.545,0.492,1.173,0.54,1.958c0.043,0.294-0.088,0.763,0.067,0.945c0,0.248,0,0.495,0,0.742
	c-0.082,1.268-0.517,2.184-0.945,3.105c-0.128,0.101-0.878,1.435-0.675,1.418c-0.466,0.771-0.858,1.616-1.418,2.295
	c-0.404,0.495-0.765,1.035-1.08,1.62c-0.952,1.522-2.031,2.919-3.173,4.253c-0.256,0.194-0.464,0.437-0.607,0.742
	c-0.023,0.224-0.202,0.293-0.338,0.405c-0.097,0.038-0.164,0.105-0.202,0.202c-0.439-0.19-0.547-0.713-0.945-0.944
	c-0.495-0.451-0.845-1.045-1.283-1.553c0-0.022,0-0.045,0-0.068c-0.357-0.588-0.762-1.128-1.215-1.619
	c-0.399-0.389-0.67-0.905-1.012-1.351c-0.026-0.222-0.197-0.298-0.27-0.473c-0.135-0.315-0.315-0.585-0.541-0.811
	c-0.669-0.86-1.172-1.887-1.755-2.835c0.206,0.049-0.414-1.088-0.54-1.147c-0.405-0.833-0.754-1.722-0.945-2.768
	c-0.045-0.607,0.089-1.394-0.068-1.89c0.135-0.833,0.371-1.564,0.607-2.295c0.26-0.258,0.392-0.644,0.541-1.013
	c0.163-0.467,0.473-0.787,0.742-1.147c0.022,0,0.045,0,0.068,0c0.205-0.223,0.375-0.48,0.607-0.675
	c0.354-0.186,0.609-0.471,0.877-0.742c1.092-0.821,2.343-1.483,4.118-1.621c0.63,0,1.26,0,1.891,0
	c1.299,0.096,2.334,0.455,3.173,1.012c0,0.023,0,0.046,0,0.068c0.461,0.191,0.77,0.535,1.215,0.742
	C25.462,10.867,25.484,10.867,25.507,10.867z M19.702,13.163c-0.928-0.051-1.336,0.419-1.958,0.674c-0.022,0-0.045,0-0.068,0
	c-0.326,0.305-0.706,0.554-0.877,1.013c-0.004,0.086-0.087,0.093-0.068,0.203c-0.312,0.476-0.443,1.132-0.54,1.822
	c-0.046-1.033-0.128,0.952,0,0.27c0.114,0.832,0.396,1.494,0.743,2.093c0.186,0.354,0.456,0.624,0.81,0.81
	c0.589,0.288,1.066,0.688,1.958,0.676c0,0.021,0,0.045,0,0.066c-0.512,0.056,0.98,0.189,1.012-0.066
	c0.613-0.107,1.07-0.371,1.553-0.608c0.49-0.133,1.402-1.342,1.147-1.351c0.146-0.349,0.377-0.614,0.405-1.08
	c0.245-0.093,0.142-1.461,0.067-1.215c-0.022,0-0.045,0-0.067,0c0.068-0.405-0.1-0.576-0.135-0.878
	c-0.248-0.833-0.72-1.441-1.418-1.822c-0.524-0.195-0.853-0.588-1.553-0.607c-0.042-0.24-1.308-0.143-1.012-0.068
	C19.702,13.118,19.702,13.14,19.702,13.163z"/>
</svg>
