<?xml version="1.0" encoding="utf-8"?>
<!-- Generator: Adobe Illustrator 13.0.0, SVG Export Plug-In . SVG Version: 6.00 Build 14948)  -->
<!DOCTYPE svg PUBLIC "-//W3C//DTD SVG 1.1//EN" "http://www.w3.org/Graphics/SVG/1.1/DTD/svg11.dtd">
<svg version="1.1" id="Layer_1" xmlns="http://www.w3.org/2000/svg" xmlns:xlink="http://www.w3.org/1999/xlink" x="0px" y="0px"
	 width="50px" height="50px" viewBox="0 0 50 50" enable-background="new 0 0 50 50" xml:space="preserve">
<path fill-rule="evenodd" clip-rule="evenodd" fill="#FFFFFF" d="M8.397,23.384c0.037,0,0.074,0,0.111,0
	c0.474,0.046,0.76,0.856,0.442,1.326c-0.336-0.069-0.952,0.142-1.105-0.11C7.741,23.906,7.926,23.502,8.397,23.384z"/>
<path fill-rule="evenodd" clip-rule="evenodd" fill="#FFFFFF" d="M45.748,24.268c0,0.405,0,0.811,0,1.216c-0.516,0-1.031,0-1.547,0
	c0,0.773,0,1.547,0,2.321c0.298,0.254,1.066,0.039,1.547,0.109c0,0.442,0,0.885,0,1.326c-7.993,0-15.986,0-23.979,0
	c0-0.441,0-0.884,0-1.326c0.663,0,1.326,0,1.989,0c0.256-0.59,0.038-1.656,0.11-2.431c-0.7,0-1.399,0-2.1,0
	c0.07-0.372-0.142-1.026,0.111-1.216C29.836,24.268,37.792,24.268,45.748,24.268z M24.863,27.914c0.589,0,1.179,0,1.768,0
	c0-0.811,0-1.62,0-2.431c-0.589,0-1.179,0-1.768,0C24.863,26.294,24.863,27.104,24.863,27.914z M27.626,27.914
	c0.589,0,1.179,0,1.768,0c0-0.773,0-1.547,0-2.32c-0.396-0.229-1.195-0.057-1.768-0.11C27.626,26.294,27.626,27.104,27.626,27.914z
	 M30.388,27.914c0.59,0,1.179,0,1.769,0c0-0.773,0-1.547,0-2.32c-0.396-0.229-1.195-0.057-1.769-0.11
	C30.388,26.294,30.388,27.104,30.388,27.914z M33.15,27.914c0.59,0,1.179,0,1.769,0c0-0.773,0-1.547,0-2.32
	c-0.396-0.229-1.195-0.057-1.769-0.11C33.15,26.294,33.15,27.104,33.15,27.914z M35.913,27.914c0.59,0,1.179,0,1.769,0
	c0-0.773,0-1.547,0-2.32c-0.396-0.229-1.195-0.057-1.769-0.11C35.913,26.294,35.913,27.104,35.913,27.914z M38.676,27.914
	c0.59,0,1.179,0,1.769,0c0-0.773,0-1.547,0-2.32c-0.396-0.229-1.195-0.057-1.769-0.11C38.676,26.294,38.676,27.104,38.676,27.914z
	 M41.438,27.914c0.59,0,1.179,0,1.769,0c0-0.773,0-1.547,0-2.32c-0.397-0.229-1.195-0.057-1.769-0.11
	C41.438,26.294,41.438,27.104,41.438,27.914z"/>
<path fill-rule="evenodd" clip-rule="evenodd" fill="#FFFFFF" d="M48.4,40.512c0,0.553,0,1.105,0,1.658c-1.179,0-2.357,0-3.536,0
	c0.032-3.103-2.71-5.152-5.636-4.752c-2.422,0.331-3.642,2.402-4.199,4.752c-0.688-0.361-0.476-1.129-0.663-1.658
	c-1.557-4.391-9.108-4.182-9.393,1.658c-3.021,0-6.041,0-9.062,0c0.258-5.998-9.879-6.013-9.614,0c-1.583,0-3.167,0-4.751,0
	c0-0.553,0-1.105,0-1.658c0.516,0,1.031,0,1.547,0c0.287-2.915-0.391-5.346,0-7.846c0.205-1.305,1.062-2.607,1.547-3.867
	c0.534-1.387,0.844-2.762,1.547-3.868c4.494,0,8.988,0,13.481,0c0.497,1.704,0.88,4.185,1.105,6.078
	c0.062,0.519-0.274,1.8,0.663,1.769c0.611-0.05,0.287-0.922,0.332-1.438c0.049-0.565,0.102-1.195,0.221-1.547
	c7.846,0,15.692,0,23.538,0c-0.071,0.481,0.145,1.25-0.11,1.547c-2.652,0-5.305,0-7.957,0c0,0.479,0,0.958,0,1.438
	c3.205,0,6.41,0,9.614,0c0,2.578,0,5.156,0,7.734C47.517,40.512,47.958,40.512,48.4,40.512z M7.514,26.367
	c-0.922,1.804-1.592,3.859-2.431,5.746c1.916,0,3.831,0,5.746,0c0-1.915,0-3.83,0-5.746C9.724,26.367,8.619,26.367,7.514,26.367z
	 M12.486,26.367c0,1.916,0,3.831,0,5.746c1.916,0,3.831,0,5.746,0c-0.13-1.858-0.018-3.96-0.221-5.746
	C16.17,26.367,14.328,26.367,12.486,26.367z"/>
<path fill-rule="evenodd" clip-rule="evenodd" fill="#FFFFFF" d="M29.394,38.412c5.021-0.604,6.103,7.364,0.884,7.847
	c-2.336,0.216-4.326-1.657-4.42-3.758C25.756,40.207,27.034,38.696,29.394,38.412z"/>
<path fill-rule="evenodd" clip-rule="evenodd" fill="#FFFFFF" d="M39.671,38.412c2.794-0.383,4.924,1.998,4.42,4.752
	c-0.707,3.862-7.113,4.116-7.846,0C35.778,40.54,37.369,38.728,39.671,38.412z"/>
<path fill-rule="evenodd" clip-rule="evenodd" fill="#FFFFFF" d="M11.492,46.59c-0.294,0-0.589,0-0.884,0
	c-2.275-0.588-3.569-1.997-3.536-4.089c0.042-2.698,3.04-4.814,5.746-3.536C16.04,40.487,15.513,46.38,11.492,46.59z"/>
<g>
	<path fill="#00FF00" d="M26.73,18.323c0,0.769-0.622,1.392-1.392,1.392c-0.769,0-1.392-0.623-1.392-1.392s0.623-1.392,1.392-1.392
		C26.108,16.932,26.73,17.554,26.73,18.323z M22.137,15.645l1.066,0.894c1.064-1.271,3.211-1.271,4.273,0.001l1.068-0.892
		c-0.798-0.954-1.966-1.5-3.206-1.5C24.1,14.148,22.933,14.693,22.137,15.645z M20.182,13.651l1.031,0.935
		c1.053-1.164,2.558-1.829,4.126-1.829s3.071,0.666,4.125,1.826l1.029-0.935c-1.316-1.451-3.194-2.283-5.154-2.283
		C23.378,11.365,21.498,12.2,20.182,13.651z M18.22,11.673l1.017,0.95c1.573-1.684,3.798-2.65,6.103-2.65
		c2.339,0,4.505,0.94,6.101,2.647l1.017-0.951c-1.835-1.962-4.429-3.088-7.117-3.088S20.055,9.708,18.22,11.673z M16.253,9.7
		l1.01,0.958c2.124-2.237,4.992-3.468,8.076-3.468s5.95,1.23,8.073,3.463l1.008-0.958c-2.388-2.513-5.612-3.896-9.081-3.896
		C21.869,5.798,18.644,7.185,16.253,9.7z M25.339,3.015c-4.194,0-8.114,1.68-11.037,4.727l1.004,0.965
		c2.658-2.773,6.221-4.3,10.033-4.3c3.813,0,7.376,1.527,10.032,4.299l1.006-0.964C33.454,4.693,29.534,3.015,25.339,3.015z"/>
</g>
</svg>
