<?xml version="1.0" encoding="utf-8"?>
<!-- Generator: Adobe Illustrator 13.0.0, SVG Export Plug-In . SVG Version: 6.00 Build 14948)  -->
<!DOCTYPE svg PUBLIC "-//W3C//DTD SVG 1.1//EN" "http://www.w3.org/Graphics/SVG/1.1/DTD/svg11.dtd">
<svg version="1.1" id="Layer_1" xmlns="http://www.w3.org/2000/svg" xmlns:xlink="http://www.w3.org/1999/xlink" x="0px" y="0px"
	 width="50px" height="50px" viewBox="0 0 50 50" enable-background="new 0 0 50 50" xml:space="preserve">
<path fill="#FFFFFF" d="M25.5,14.719c-5.955,0-10.781,4.827-10.781,10.781S19.545,36.281,25.5,36.281
	c5.954,0,10.782-4.827,10.782-10.781S31.453,14.719,25.5,14.719z M47.038,23.705h-3.459c-0.844-8.601-7.685-15.44-16.285-16.284
	V3.962c0-0.991-0.804-1.795-1.794-1.795c-0.991,0-1.795,0.804-1.795,1.795v3.459c-8.6,0.844-15.441,7.683-16.284,16.284H3.961
	c-0.991,0-1.795,0.804-1.795,1.795s0.804,1.795,1.795,1.795H7.42c0.843,8.601,7.684,15.44,16.284,16.283v3.46
	c0,0.991,0.804,1.795,1.795,1.795c0.991,0,1.794-0.804,1.794-1.795v-3.46c8.601-0.843,15.441-7.683,16.285-16.283h3.459
	c0.991,0,1.794-0.804,1.794-1.795S48.029,23.705,47.038,23.705z M25.5,39.994c-8.004,0-14.493-6.49-14.493-14.494
	S17.495,11.006,25.5,11.006c8.005,0,14.494,6.49,14.494,14.494S33.505,39.994,25.5,39.994z"/>
</svg>
